<svg id="visual" viewBox="0 0 1920 1080" width="1920" height="1080" xmlns="http://www.w3.org/2000/svg" xmlns:xlink="http://www.w3.org/1999/xlink" version="1.1"><rect x="0" y="0" width="1920" height="1080" fill="#8B939C"></rect><path d="M0 519L45.7 542.5C91.3 566 182.7 613 274.2 637.8C365.7 662.7 457.3 665.3 548.8 652.2C640.3 639 731.7 610 823 611.7C914.3 613.3 1005.7 645.7 1097 655.5C1188.3 665.3 1279.7 652.7 1371.2 625.7C1462.7 598.7 1554.3 557.3 1645.8 553.5C1737.3 549.7 1828.7 583.3 1874.3 600.2L1920 617L1920 1081L1874.3 1081C1828.7 1081 1737.3 1081 1645.8 1081C1554.3 1081 1462.7 1081 1371.2 1081C1279.7 1081 1188.3 1081 1097 1081C1005.7 1081 914.3 1081 823 1081C731.7 1081 640.3 1081 548.8 1081C457.3 1081 365.7 1081 274.2 1081C182.7 1081 91.3 1081 45.7 1081L0 1081Z" fill="#59546C" stroke-linecap="round" stroke-linejoin="miter"></path></svg>